<svg width="100" height="100" viewBox="0 0 100 100" fill="none" xmlns="http://www.w3.org/2000/svg">
<g clip-path="url(#clip0)">
<path d="M99.7324 60.9682C99.4092 60.4082 98.834 60.0399 98.1902 59.9805C97.7713 59.942 88.975 59.1828 78.7933 62.1875C83.9355 49.1399 82.8738 36.6865 82.8175 36.0772C82.7582 35.4334 82.39 34.8582 81.8299 34.535C81.2699 34.2117 80.5879 34.1803 80.0004 34.451C79.5363 34.6647 69.6441 39.2949 61.2015 48.8514C58.8004 35.3967 51.9752 25.6037 51.6254 25.1092C51.2521 24.5813 50.6457 24.2674 49.9988 24.2674C49.3519 24.2674 48.7457 24.5813 48.3722 25.1092C48.0224 25.6035 41.1976 35.3965 38.7961 48.8514C30.3535 39.2947 20.4613 34.6647 19.9972 34.451C19.4101 34.1805 18.7277 34.2117 18.1678 34.535C17.6078 34.8582 17.2394 35.4334 17.1801 36.0772C17.1236 36.6867 16.0619 49.1402 21.2043 62.1879C11.0222 59.1834 2.22576 59.942 1.80779 59.9805C1.16404 60.0399 0.588845 60.4082 0.265603 60.9682C-0.0576393 61.5281 -0.0890846 62.2102 0.181618 62.7977C0.451931 63.385 6.96248 77.2684 20.6109 85.1483C30.7047 90.976 41.6892 91.7805 46.9873 91.7805C48.5219 91.7805 49.5787 91.7129 49.999 91.6805C50.4193 91.7131 51.4756 91.7805 53.0107 91.7805C58.3092 91.7805 69.2939 90.9754 79.3871 85.1483C93.0355 77.2684 99.5459 63.385 99.8164 62.7977C100.087 62.2106 100.056 61.5281 99.7324 60.9682ZM22.6035 81.6981C13.5607 76.4772 7.80447 68.1397 5.28103 63.86C9.17888 63.8908 16.234 64.3981 23.4746 67.1539C23.7707 67.718 24.0783 68.2811 24.4019 68.8412C29.5633 77.7809 37.0484 83.9557 42.4412 87.5733C37.057 87.108 29.5219 85.6926 22.6035 81.6981ZM27.8523 66.8492C21.8804 56.5057 21.0658 44.9313 21.0535 39.5297C24.9611 41.7959 32.3228 46.7033 38.1082 54.2856C38.0185 55.4922 37.9689 56.7186 37.9689 57.9633C37.9689 68.7182 41.5564 78.1703 44.5211 84.1459C39.4998 80.7473 32.5592 75.002 27.8523 66.8492ZM49.9994 85.8961C47.2429 81.1151 41.9531 70.3279 41.9531 57.9633C41.9531 45.5986 47.2433 34.8111 49.9994 30.0307C52.7558 34.8117 58.0457 45.5988 58.0457 57.9635C58.0457 70.3281 52.7552 81.1156 49.9994 85.8961ZM62.0297 57.9631C62.0297 56.7186 61.9801 55.492 61.8904 54.2856C67.6779 46.701 75.0427 41.7924 78.9492 39.5276C78.942 44.9207 78.1349 56.4772 72.1467 66.849C67.4533 74.9783 60.5094 80.7279 55.4836 84.1336C58.447 78.1574 62.0297 68.7111 62.0297 57.9631ZM77.3953 81.6981C70.4769 85.6922 62.9418 87.1078 57.5578 87.5733C62.9504 83.9557 70.4355 77.7809 75.5967 68.8414C75.9201 68.2811 76.2281 67.718 76.5244 67.1535C83.7431 64.4067 90.8105 63.8977 94.7154 63.8637C92.1904 68.1453 86.4349 76.4789 77.3953 81.6981Z" fill="white"/>
<path d="M33.8644 25.351C30.6241 25.351 27.9878 27.9873 27.9878 31.2275C27.9878 34.4677 30.6241 37.1041 33.8644 37.1041C37.1046 37.1041 39.7409 34.4677 39.7409 31.2275C39.7409 27.9873 37.1046 25.351 33.8644 25.351ZM33.8644 33.1199C32.821 33.1199 31.972 32.2709 31.972 31.2275C31.972 30.1842 32.821 29.3351 33.8644 29.3351C34.9077 29.3351 35.7567 30.1842 35.7567 31.2275C35.7567 32.2709 34.9079 33.1199 33.8644 33.1199Z" fill="white"/>
<path d="M66.1354 25.351C62.8951 25.351 60.2588 27.9873 60.2588 31.2275C60.2588 34.4677 62.8951 37.1041 66.1354 37.1041C69.3756 37.1041 72.0119 34.4677 72.0119 31.2275C72.0119 27.9873 69.3756 25.351 66.1354 25.351ZM66.1354 33.1199C65.092 33.1199 64.243 32.2709 64.243 31.2275C64.243 30.1842 65.092 29.3351 66.1354 29.3351C67.1787 29.3351 68.0277 30.1842 68.0277 31.2275C68.0277 32.2709 67.1789 33.1199 66.1354 33.1199Z" fill="white"/>
<path d="M50.0001 8.21936C46.7599 8.21936 44.1235 10.8557 44.1235 14.0959C44.1235 17.3362 46.7599 19.9725 50.0001 19.9725C53.2403 19.9725 55.8767 17.3362 55.8767 14.0959C55.8767 10.8557 53.2403 8.21936 50.0001 8.21936ZM50.0001 15.9883C48.9567 15.9883 48.1077 15.1393 48.1077 14.0959C48.1077 13.0526 48.9567 12.2035 50.0001 12.2035C51.0435 12.2035 51.8925 13.0526 51.8925 14.0959C51.8925 15.1393 51.0435 15.9883 50.0001 15.9883Z" fill="white"/>
<path d="M51.9933 71.9721C50.955 71.6088 49.8187 72.1553 49.4546 73.1935C49.2099 73.8924 49.0464 74.2804 49.0456 74.2818C48.6144 75.2941 49.0855 76.4642 50.0976 76.8953C50.3521 77.0037 50.6169 77.0551 50.8775 77.0551C51.6517 77.0551 52.3882 76.6008 52.7111 75.8433C52.7322 75.7935 52.9269 75.3328 53.2146 74.5107C53.5787 73.4724 53.0316 72.3357 51.9933 71.9721Z" fill="white"/>
<path d="M55.8843 56.907C55.849 55.8074 54.9263 54.9441 53.8294 54.9801C52.7298 55.0154 51.8671 55.9356 51.9025 57.0352C52.0118 60.4359 51.7116 63.933 51.0101 67.4287C50.7935 68.5074 51.4925 69.5572 52.5712 69.7738C52.7034 69.8004 52.8351 69.8131 52.9652 69.8131C53.8946 69.8131 54.7261 69.159 54.9161 68.2125C55.6779 64.4168 56.0034 60.6133 55.8843 56.907Z" fill="white"/>
</g>
<defs>
<clipPath id="clip0">
<rect width="100" height="100" fill="white"/>
</clipPath>
</defs>
</svg>
