<svg height="512pt" viewBox="0 -25 512 512" width="512pt" xmlns="http://www.w3.org/2000/svg"><path d="m206.429688 198.597656c-38.742188-27-86.773438-33.609375-134.371094-31.230468-2.351563 47.105468 4.058594 95.394531 31.230468 134.371093l118.171876 15zm0 0" fill="#ff4b00"/><path d="m439.941406 167.367188c-47.363281-2.367188-95.46875 4.109374-134.371094 31.230468l-15 118.167969 119.140626-15.027344c27.167968-38.972656 32.582031-87.257812 30.230468-134.371093zm0 0" fill="#dd3d05"/><path d="m311.5 393.007812c-18.601562 35.398438-44.398438 58.5-45.601562 59.398438l-9.898438 9-9.902344-9c-1.199218-.898438-27-24-45.597656-59.398438l55.5-63zm0 0" fill="#a0deb0"/><path d="m311.5 393.007812c-18.601562 35.398438-44.398438 58.5-45.601562 59.398438l-9.898438 9v-131.398438zm0 0" fill="#80d398"/><path d="m512 351.308594c-37.5 41.398437-81.398438 75-136 75-54.300781 0-99.902344-41.402344-120-60-20.097656 18.597656-65.699219 60-120 60-54.601562 0-98.5-33.601563-136-75 37.5-41.402344 81.398438-75 136-75 54.300781 0 99.902344 41.398437 120 60 20.097656-18.601563 65.699219-60 120-60 54.601562 0 98.5 33.597656 136 75zm0 0" fill="#ff7d43"/><path d="m512 351.308594c-37.5 41.398437-81.398438 75-136 75-54.300781 0-99.902344-41.402344-120-60v-30c20.097656-18.601563 65.699219-60 120-60 54.601562 0 98.5 33.597656 136 75zm0 0" fill="#ff4b00"/><path d="m234.691406 21.300781 21.300782-21.300781 21.296874 21.300781-21.296874 21.296875zm0 0" fill="#ffa17a"/><path d="m346 60.09375 21.210938 21.210938-21.210938 21.210937-21.210938-21.210937zm0 0" fill="#ff7d43"/><path d="m166 60.09375 21.210938 21.210938-21.210938 21.210937-21.210938-21.210937zm0 0" fill="#ffa17a"/><path d="m277.300781 21.308594-21.300781 21.296875v-42.5976565zm0 0" fill="#ff7d43"/><path d="m256 66.308594c-41.398438 37.5-75 110.398437-75 165 0 54.597656 33.601562 97.5 75 135 41.398438-37.5 75-80.402344 75-135 0-54.601563-33.601562-127.5-75-165zm0 0" fill="#ffa17a"/><path d="m331 231.308594c0 54.597656-33.601562 97.5-75 135v-300c41.398438 37.5 75 110.398437 75 165zm0 0" fill="#ff7d43"/></svg>