<svg id="Capa_1" enable-background="new 0 0 512 512" height="512" viewBox="0 0 512 512" width="512" xmlns="http://www.w3.org/2000/svg"><g><path d="m351.677 286.426v-14.394c0-4.142-3.358-7.5-7.5-7.5s-7.5 3.358-7.5 7.5v8.83c-1.483-.189-2.99-.298-4.524-.298-4.142 0-7.5 3.358-7.5 7.5s3.358 7.5 7.5 7.5c11.334 0 20.556 9.222 20.556 20.557s-9.222 20.557-20.556 20.557h-4.008c-4.142 0-7.5 3.357-7.5 7.5 0 66.586-54.172 120.758-120.758 120.758s-120.758-54.172-120.758-120.758c0-4.143-3.358-7.5-7.5-7.5h-4.008c-11.335 0-20.557-9.222-20.557-20.557s9.222-20.557 20.557-20.557c4.142 0 7.5-3.358 7.5-7.5s-3.358-7.5-7.5-7.5c-1.534 0-3.041.108-4.524.298v-32.878c0-24.527 7.309-48.135 21.136-68.271 13.511-19.676 32.301-34.791 54.338-43.711 3.839-1.554 5.692-5.927 4.138-9.766s-5.928-5.692-9.766-4.138c-24.773 10.028-45.892 27.015-61.075 49.124-15.551 22.646-23.771 49.19-23.771 76.762v38.442c-9.649 6.365-16.032 17.296-16.032 29.695 0 18.495 14.193 33.737 32.261 35.405 1.634 30.453 13.356 58.269 31.868 80.168v72.806c0 4.142 3.358 7.5 7.5 7.5s7.5-3.358 7.5-7.5v-57.627c23.808 20.59 54.822 33.062 88.694 33.062s64.885-12.472 88.693-33.062v57.627c0 4.142 3.358 7.5 7.5 7.5s7.5-3.358 7.5-7.5v-72.805c18.512-21.9 30.234-49.716 31.868-80.168 18.067-1.668 32.261-16.91 32.261-35.405-.001-12.4-6.384-23.331-16.033-29.696z"/><path d="m441.666 38.27c-2.929-2.93-7.678-2.93-10.606 0l-22.072 22.072c-2.323 2.323-5.412 3.603-8.697 3.603-3.286 0-6.375-1.28-8.753-3.658-10.644-10.644-27.964-10.644-38.607 0l-7.375 7.375c-4.352-3.791-9.029-7.283-14.018-10.429-3.503-2.209-8.135-1.159-10.344 2.344-2.209 3.504-1.16 8.135 2.344 10.344 28.305 17.848 45.204 48.453 45.204 81.869 0 53.326-43.384 96.71-96.709 96.71s-96.709-43.384-96.709-96.71 43.384-96.709 96.709-96.709c7.544 0 15.056.871 22.325 2.588 4.027.952 8.071-1.543 9.023-5.575s-1.544-8.071-5.575-9.023c-8.398-1.984-17.069-2.99-25.773-2.99-61.597 0-111.709 50.113-111.709 111.709 0 61.597 50.113 111.71 111.709 111.71s111.709-50.113 111.709-111.71c0-27.568-9.961-53.474-27.561-73.542l7.356-7.356c4.795-4.795 12.598-4.796 17.45.055 10.645 10.645 27.964 10.644 38.608 0l22.072-22.072c2.928-2.928 2.928-7.677-.001-10.605z"/><path d="m440.371 23.016c4.142 0 7.5-3.358 7.5-7.5v-8.016c0-4.142-3.358-7.5-7.5-7.5s-7.5 3.358-7.5 7.5v8.016c0 4.142 3.358 7.5 7.5 7.5z"/><path d="m472.436 32.064h-8.016c-4.142 0-7.5 3.358-7.5 7.5s3.358 7.5 7.5 7.5h8.016c4.142 0 7.5-3.358 7.5-7.5s-3.358-7.5-7.5-7.5z"/><path d="m448.387 64.129c-4.142 0-7.5 3.358-7.5 7.5 0 4.143 3.358 7.5 7.5 7.5h.08c4.142 0 7.46-3.357 7.46-7.5 0-4.142-3.398-7.5-7.54-7.5z"/><path d="m408.226 39.048h.081c4.142 0 7.46-3.358 7.46-7.5s-3.398-7.5-7.541-7.5-7.5 3.358-7.5 7.5 3.358 7.5 7.5 7.5z"/></g></svg>