<svg id="Layer_1" enable-background="new 0 0 512.001 512.001" height="512" viewBox="0 0 512.001 512.001" width="512" xmlns="http://www.w3.org/2000/svg"><g><g><path d="m466.008 103.91c0-21.102-15.436-38.666-35.61-41.993-5.456-20.292-23.819-35.333-45.313-36.106-12.004-16.265-30.764-25.811-51.263-25.811-26.548 0-49.895 16.245-59.364 40.396-20.812.653-38.364 14.43-44.658 33.31-39.502 5.562-75.906 24.676-103.084 54.281-28.868 31.447-44.766 72.028-44.766 114.27 0 10.382-9.245 29.461-24.729 51.037-14.405 20.07-12.34 34.197-8.072 42.515 4.5 8.768 15.635 19.046 42.925 21.063v43.753c0 29.594 24.293 53.67 54.153 53.67 26.102 0 40.475.968 46.598 6.26 5.996 5.181 7.887 18.244 9.451 42.103.345 5.258 4.709 9.346 9.979 9.346h143.395c2.766 0 5.408-1.146 7.299-3.164s2.861-4.73 2.68-7.49c-1.267-19.334-1.794-33.583-1.709-46.199.037-5.522-4.41-10.03-9.933-10.067-.023 0-.045 0-.068 0-5.491 0-9.961 4.433-9.999 9.933-.071 10.652.272 22.345 1.1 36.986h-123.455c-1.742-21.759-4.681-37.092-15.661-46.581-12.01-10.378-30.557-11.127-59.676-11.127-18.832 0-34.153-15.104-34.153-33.67v-13.399c6.167 0 15.747 3.319 25 8.661 1.575.91 3.294 1.342 4.991 1.342 3.456 0 6.817-1.794 8.669-5.002 2.762-4.783 1.123-10.899-3.66-13.66-7.336-4.235-21.638-11.34-35-11.34v-20.001c0-5.523-4.477-10-10-10-18.609 0-31.742-3.943-35.131-10.547-2.401-4.679-.022-12.597 6.526-21.722 12.993-18.103 28.48-43.675 28.48-62.698 0-66.208 43.095-122.888 104.375-142.729-1.746 4.068-2.717 8.545-2.717 13.245 0 18.582 15.118 33.7 33.7 33.7h133.536c6.987 8.305 13.003 17.259 17.985 26.696-.342.649-.625 1.341-.822 2.08l-5.176 19.318c-1.43 5.335 1.736 10.818 7.071 12.248.867.232 1.738.343 2.595.343 3.251 0 6.296-1.602 8.155-4.229 3.525 12.732 5.356 25.948 5.356 39.329 0 27.546-7.704 54.534-22.28 78.046-9.387 15.141-16.739 29.185-22.478 42.936-2.127 5.097.28 10.953 5.377 13.08 1.259.525 2.563.774 3.847.774 3.915 0 7.631-2.313 9.233-6.151 5.324-12.758 12.2-25.875 21.019-40.101 16.539-26.68 25.281-57.312 25.281-88.584 0-34.296-10.553-67.623-30.027-95.786h27.468c23.467-.003 42.56-19.096 42.56-42.564zm-242.401 8.861c0-7.554 6.146-13.7 13.7-13.7 5.523 0 10-4.477 10-10 0-15.825 12.875-28.7 28.7-28.7 1.388 0 2.794.102 4.18.303 5.089.735 9.903-2.499 11.142-7.486 4.853-19.541 22.327-33.188 42.493-33.188 15.445 0 29.454 7.896 37.473 21.124 1.979 3.264 5.65 5.115 9.445 4.775.885-.079 1.763-.12 2.608-.12 14.857 0 27.422 11.582 28.605 26.368.416 5.197 4.755 9.202 9.968 9.202h1.525c12.44 0 22.561 10.121 22.561 22.561s-10.121 22.561-22.561 22.561h-186.14c-7.553 0-13.699-6.146-13.699-13.7z"/><path d="m134.581 255.147c-5.523 0-9.997 4.477-9.997 10s4.481 10 10.004 10 10-4.477 10-10-4.477-10-10-10z"/><path d="m357.678 420.239c5.523 0 10-4.477 10-10s-4.477-10-10-10h-.007c-5.523 0-9.996 4.477-9.996 10s4.48 10 10.003 10z"/><path d="m172.16 230.146c0-5.523-4.477-10-10-10-3.812 0-8.589-2.039-13.646-4.197-6.373-2.72-13.595-5.803-21.497-5.803-5.523 0-10 4.477-10 10s4.477 10 10 10c3.812 0 8.589 2.039 13.646 4.197 6.373 2.72 13.595 5.803 21.497 5.803 5.523 0 10-4.477 10-10z"/><path d="m252.143 199.743 5.177-19.318c1.43-5.334-1.736-10.818-7.071-12.248-5.334-1.431-10.818 1.736-12.248 7.071l-5.177 19.318c-1.43 5.334 1.736 10.818 7.071 12.248.867.232 1.738.343 2.595.343 4.415 0 8.456-2.947 9.653-7.414z"/><path d="m234.719 226.133c-5.332-1.432-10.818 1.736-12.247 7.071l-5.176 19.319c-1.43 5.334 1.736 10.818 7.071 12.247.867.232 1.737.343 2.594.343 4.415 0 8.456-2.947 9.653-7.415l5.176-19.318c1.43-5.334-1.736-10.817-7.071-12.247z"/><path d="m302.145 199.743 5.176-19.318c1.43-5.335-1.736-10.818-7.071-12.248-5.335-1.431-10.819 1.736-12.248 7.071l-5.176 19.318c-1.43 5.335 1.736 10.818 7.071 12.248.867.232 1.738.343 2.595.343 4.415 0 8.456-2.947 9.653-7.414z"/><path d="m284.721 226.133c-5.333-1.432-10.818 1.736-12.247 7.071l-5.176 19.319c-1.43 5.334 1.736 10.818 7.071 12.247.867.232 1.737.343 2.594.343 4.415 0 8.456-2.947 9.653-7.415l5.176-19.318c1.43-5.334-1.736-10.817-7.071-12.247z"/><path d="m352.146 199.743 5.177-19.318c1.43-5.334-1.736-10.818-7.071-12.248-5.336-1.431-10.818 1.736-12.248 7.071l-5.177 19.318c-1.43 5.334 1.736 10.818 7.071 12.248.867.232 1.738.343 2.595.343 4.416 0 8.456-2.947 9.653-7.414z"/><path d="m334.722 226.133c-5.333-1.432-10.818 1.736-12.247 7.071l-5.176 19.319c-1.43 5.334 1.736 10.818 7.071 12.247.867.232 1.737.343 2.594.343 4.415 0 8.456-2.947 9.653-7.415l5.176-19.318c1.43-5.334-1.736-10.817-7.071-12.247z"/><path d="m376.966 265.114c4.415 0 8.456-2.946 9.653-7.414l5.177-19.319c1.43-5.334-1.736-10.818-7.071-12.248-5.334-1.432-10.818 1.736-12.248 7.071l-5.177 19.319c-1.43 5.335 1.736 10.818 7.071 12.248.867.232 1.738.343 2.595.343z"/></g></g></svg>