<svg id="Capa_1" enable-background="new 0 0 510.369 510.369" height="512" viewBox="0 0 510.369 510.369" width="512" xmlns="http://www.w3.org/2000/svg"><g><path d="m314.885 208.909c-37.18 25.41-97.03 52.6-186.33 57.61v90.68c0 69.82 56.81 126.63 126.63 126.63s126.63-56.81 126.63-126.63v-107.61c-19.472-6.912-50.335-26.959-66.93-40.68zm-158.12 142.02 33.86-27.33h-28.44v-30h76v30.17l-62.58 50.5zm143.31 84.88-18.89-10.17-26 14-26-14-18.89 10.17-14.22-26.42 33.11-17.83 26 14 26-14 33.11 17.83zm53.529-84.88-18.84 23.34-62.58-50.5v-30.17h76v30h-28.44z"/><path d="m255.354 110.599c-72.94 0-133.17 55.5-140.66 126.5 86.693-2.64 153.549-27.48 201.64-66.49 18.457 16.438 43.022 37.338 77.25 51.36-13.686-63.512-70.95-111.476-138.23-111.37z"/><path d="m40.725 323.983-27.329-8.745-13.396 64.302 29.369 6.118 6.604-31.698 22.672 7.255 21.057-55.276-28.035-10.68z"/><path d="m469.645 323.983-10.943-28.724-28.035 10.68 21.058 55.276 22.671-7.255 6.604 31.698 29.369-6.118-13.396-64.302z"/><path d="m35.973 58.238-6.604-31.698-29.369 6.118 13.396 64.302 27.329-8.745 10.942 28.724 28.035-10.68-21.057-55.276z"/><path d="m469.645 88.215 27.328 8.745 13.396-64.302-29.369-6.118-6.604 31.698-22.671-7.255-21.058 55.276 28.035 10.68z"/></g></svg>